<svg xmlns="http://www.w3.org/2000/svg" width="185" height="37" viewBox="0 0 185 37" fill="none"><path d="M100.618 27.2234C101.514 29.9946 98.3337 32.289 95.9868 30.5641L93.8665 29.0058C92.8094 28.2289 91.3702 28.2289 90.3132 29.0058L88.1929 30.5641C85.846 32.289 82.6654 29.9946 83.5618 27.2234L84.405 24.6169C84.8036 23.3845 84.3663 22.0354 83.3205 21.2713L81.11 19.6561C78.7668 17.944 79.9778 14.2338 82.8799 14.2338H85.556C86.8597 14.2338 88.0142 13.3918 88.4125 12.1505L89.2333 9.59285C90.1247 6.81508 94.0549 6.81507 94.9463 9.59284L95.7671 12.1505C96.1655 13.3918 97.3199 14.2338 98.6236 14.2338H101.299C104.201 14.2338 105.412 17.9438 103.069 19.656L100.859 21.2713C99.8132 22.0354 99.376 23.3844 99.7746 24.6168L100.618 27.2234Z" fill="#FFDC5D"></path><path d="M137.418 27.2234C138.314 29.9946 135.134 32.289 132.787 30.5641L130.666 29.0058C129.609 28.2289 128.17 28.2289 127.113 29.0058L124.993 30.5641C122.646 32.289 119.465 29.9946 120.362 27.2234L121.205 24.6169C121.604 23.3845 121.166 22.0354 120.12 21.2713L117.91 19.6561C115.567 17.944 116.778 14.2338 119.68 14.2338H122.356C123.66 14.2338 124.814 13.3918 125.212 12.1505L126.033 9.59285C126.925 6.81508 130.855 6.81507 131.746 9.59284L132.567 12.1505C132.965 13.3918 134.12 14.2338 135.424 14.2338H138.099C141.001 14.2338 142.212 17.9438 139.869 19.656L137.659 21.2713C136.613 22.0354 136.176 23.3844 136.575 24.6168L137.418 27.2234Z" fill="#FFDC5D"></path><path d="M27.0179 27.2234C27.9143 29.9946 24.7337 32.289 22.3869 30.5641L20.2666 29.0058C19.2095 28.2289 17.7703 28.2289 16.7132 29.0058L14.5929 30.5641C12.2461 32.289 9.06549 29.9946 9.96192 27.2234L10.8051 24.6169C11.2037 23.3845 10.7664 22.0354 9.7206 21.2713L7.51008 19.6561C5.16688 17.944 6.37792 14.2338 9.27997 14.2338H11.9561C13.2598 14.2338 14.4143 13.3918 14.8126 12.1505L15.6334 9.59285C16.5248 6.81508 20.455 6.81507 21.3464 9.59284L22.1672 12.1505C22.5655 13.3918 23.72 14.2338 25.0237 14.2338H27.6993C30.6013 14.2338 31.8124 17.9438 29.4693 19.656L27.259 21.2713C26.2133 22.0354 25.776 23.3844 26.1747 24.6168L27.0179 27.2234Z" fill="#FFDC5D"></path><path d="M63.8178 27.2234C64.7143 29.9946 61.5337 32.289 59.1868 30.5641L57.0665 29.0058C56.0095 28.2289 54.5702 28.2289 53.5132 29.0058L51.3929 30.5641C49.046 32.289 45.8654 29.9946 46.7619 27.2234L47.605 24.6169C48.0037 23.3845 47.5664 22.0354 46.5206 21.2713L44.31 19.6561C41.9668 17.944 43.1779 14.2338 46.0799 14.2338H48.7561C50.0597 14.2338 51.2142 13.3918 51.6126 12.1505L52.4333 9.59285C53.3247 6.81508 57.255 6.81507 58.1464 9.59284L58.9671 12.1505C59.3655 13.3918 60.52 14.2338 61.8237 14.2338H64.4993C67.4012 14.2338 68.6123 17.9438 66.2693 19.656L64.059 21.2713C63.0132 22.0354 62.576 23.3844 62.9746 24.6168L63.8178 27.2234Z" fill="#FFDC5D"></path><path d="M174.218 27.2234C175.114 29.9946 171.934 32.289 169.587 30.5641L167.466 29.0058C166.409 28.2289 164.97 28.2289 163.913 29.0058L161.793 30.5641C159.446 32.289 156.265 29.9946 157.162 27.2234L158.005 24.6169C158.404 23.3845 157.966 22.0354 156.92 21.2713L154.71 19.6561C152.367 17.944 153.578 14.2338 156.48 14.2338H159.156C160.46 14.2338 161.614 13.3918 162.012 12.1505L162.833 9.59285C163.725 6.81508 167.655 6.81507 168.546 9.59284L169.367 12.1505C169.765 13.3918 170.92 14.2338 172.224 14.2338H174.899C177.801 14.2338 179.012 17.9438 176.669 19.656L174.459 21.2713C173.413 22.0354 172.976 23.3844 173.375 24.6168L174.218 27.2234Z" fill="#FFDC5D"></path></svg>