<svg xmlns="http://www.w3.org/2000/svg" width="23" height="20" viewBox="0 0 23 20" fill="none"><path fill-rule="evenodd" clip-rule="evenodd" d="M9.62736 19.9996C4.36583 19.9996 0.0889893 15.7223 0.0889893 10.4612C0.0889893 5.2002 4.36583 0.922852 9.62736 0.922852C12.2759 0.922852 14.7453 1.97861 16.571 3.91095C16.6105 3.95084 16.6346 4.00352 16.6388 4.05952C16.6429 4.11553 16.627 4.17119 16.5938 4.21651L17.1537 4.94844C17.2603 4.89362 17.3994 4.90529 17.4836 5.03879C18.5932 6.63105 19.1657 8.51061 19.1657 10.4607C19.1657 15.7223 14.8889 19.9996 9.62736 19.9996ZM9.62736 18.0307C5.45762 18.0307 2.05737 14.6305 2.05737 10.4612C2.05737 6.29199 5.45762 2.89073 9.62736 2.89073C11.6135 2.89073 13.4926 3.66021 14.9062 5.03777C14.9298 5.05833 14.9492 5.08337 14.9631 5.11145C14.9771 5.13954 14.9853 5.1701 14.9874 5.20138C14.9895 5.23267 14.9853 5.26405 14.9752 5.29373C14.9651 5.32341 14.9492 5.35079 14.9285 5.3743L15.6371 6.25393C15.7452 6.19048 15.8949 6.19657 15.9802 6.32651C19.1972 11.2226 15.7061 18.0307 9.62736 18.0307Z" fill="#545454"></path><path fill-rule="evenodd" clip-rule="evenodd" d="M9.87794 15.364C9.82755 15.3633 9.77852 15.3476 9.73705 15.3189C9.69558 15.2903 9.66353 15.25 9.64497 15.2031C9.6272 15.1676 8.08823 11.1943 5.7082 9.69085C5.24276 9.40458 4.88492 9.10054 5.02805 8.42039C5.17119 7.75851 5.61836 7.38239 6.42389 7.20373C7.85525 6.89918 9.39473 9.1183 9.96677 10.0309C11.9717 7.11439 15.98 2.53301 21.8141 1.99599C22.0953 1.963 22.1999 2.38023 21.9395 2.49697C21.8501 2.5325 13.5107 6.3444 10.1282 15.2209C10.1029 15.2648 10.0664 15.3012 10.0224 15.3263C9.97846 15.3515 9.9286 15.3645 9.87794 15.364Z" fill="#00B42C"></path></svg>